<?xml version="1.0" encoding="UTF-8" standalone="no"?>
<!DOCTYPE svg PUBLIC "-//W3C//DTD SVG 1.1//EN" "http://www.w3.org/Graphics/SVG/1.1/DTD/svg11.dtd">
<svg width="100%" height="100%" viewBox="0 0 750 500" version="1.1" xmlns="http://www.w3.org/2000/svg" xmlns:xlink="http://www.w3.org/1999/xlink" xml:space="preserve" xmlns:serif="http://www.serif.com/" style="fill-rule:evenodd;clip-rule:evenodd;stroke-linejoin:round;stroke-miterlimit:2;">
    <rect x="0" y="0" width="750" height="500" style="fill:url(#_Linear1);"/>
    <g>
        <g>
            <path d="M77.8,296.9C68.9,296.9 62.4,303.7 62.4,313C62.4,322.3 68.8,329.1 77.6,329.1C86.7,329.1 93,322.5 93,313C93,303.5 86.8,296.9 77.8,296.9Z" style="fill:white;fill-rule:nonzero;"/>
            <path d="M203.5,239.8C203.5,256.9 203.7,272.1 204.8,287.9C198.8,276.1 191.9,264 183.8,251.2L136.5,176.6L112.2,176.6L112.2,326.8L134.9,326.8L134.9,262.2C134.9,242.5 134.6,227.4 133.9,212.7C139.7,224.1 147.1,236.8 156.5,251.9L203.3,326.8L226.2,326.8L226.2,176.4L203.5,176.4L203.5,239.8Z" style="fill:white;fill-rule:nonzero;"/>
            <path d="M277.7,258.6L334.2,258.6L334.2,238.1L277.7,238.1L277.7,197.3L337.4,197.3L337.4,176.4L254,176.4L254,326.8L340.6,326.8L340.6,305.9L277.7,305.9L277.7,258.6Z" style="fill:white;fill-rule:nonzero;"/>
            <path d="M346.8,176.4L346.8,197.4L391,197.4L391,326.8L415,326.8L415,197.4L459.4,197.4L459.4,176.4L346.8,176.4Z" style="fill:white;fill-rule:nonzero;"/>
        </g>
        <g>
            <path d="M544.7,239.4C541.6,241 535.3,242.5 527.3,242.5C508.7,242.5 494.7,230.7 494.7,209.1C494.7,188.4 508.7,174.4 529.2,174.4C537.4,174.4 542.6,176.2 544.9,177.3L542.8,184.3C539.6,182.7 535,181.6 529.5,181.6C514,181.6 503.7,191.5 503.7,208.8C503.7,225 513,235.4 529.1,235.4C534.3,235.4 539.6,234.3 543,232.7L544.7,239.4Z" style="fill:white;fill-rule:nonzero;"/>
            <path d="M596.9,217.4C596.9,234.9 584.7,242.6 573.3,242.6C560.5,242.6 550.6,233.2 550.6,218.2C550.6,202.3 561,193 574.1,193C587.7,193.1 596.9,202.9 596.9,217.4ZM559.3,217.9C559.3,228.3 565.3,236.1 573.7,236.1C581.9,236.1 588.1,228.4 588.1,217.7C588.1,209.7 584.1,199.5 573.9,199.5C563.7,199.6 559.3,208.9 559.3,217.9Z" style="fill:white;fill-rule:nonzero;"/>
            <path d="M607.8,206.9C607.8,202 607.7,198 607.4,194.1L615,194.1L615.5,201.9L615.7,201.9C618.1,197.4 623.5,193 631.4,193C638,193 648.2,196.9 648.2,213.2L648.2,241.5L639.6,241.5L639.6,214.2C639.6,206.6 636.8,200.2 628.6,200.2C622.9,200.2 618.5,204.2 617,209C616.6,210.1 616.4,211.5 616.4,213L616.4,241.5L607.8,241.5L607.8,206.9Z" style="fill:white;fill-rule:nonzero;"/>
            <path d="M663.1,241.6L663.1,200.8L656.4,200.8L656.4,194.2L663.1,194.2L663.1,191.9C663.1,185.2 664.6,179.2 668.6,175.3C671.8,172.2 676.1,170.9 680.2,170.9C683.2,170.9 685.9,171.6 687.6,172.3L686.4,179C685.1,178.4 683.4,177.9 680.9,177.9C673.5,177.9 671.7,184.4 671.7,191.6L671.7,194.1L683.2,194.1L683.2,200.7L671.7,200.7L671.7,241.6L663.1,241.6Z" style="fill:white;fill-rule:nonzero;"/>
        </g>
    </g>
    <g>
        <path d="M492.3,324.1L492.3,318.8L499.6,312.2C517.3,296.7 525.2,288.5 525.3,278.9C525.3,272.4 521.9,266.4 511.6,266.4C505.3,266.4 500.1,269.3 496.9,271.8L493.9,265.7C498.7,262 505.5,259.2 513.5,259.2C528.4,259.2 534.7,268.6 534.7,277.7C534.7,289.5 525.4,299 510.9,311.9L505.4,316.6L505.4,316.8L536.5,316.8L536.5,324L492.3,324L492.3,324.1Z" style="fill:white;fill-rule:nonzero;"/>
        <g transform="matrix(1,0,0,1,-1.70614,0)">
            <path d="M592.8,291.5C592.8,313.2 584.1,325.1 568.8,325.1C555.3,325.1 546.1,313.4 545.9,292.3C545.9,270.9 555.9,259.2 569.9,259.2C584.5,259.2 592.8,271.2 592.8,291.5ZM555.3,292.5C555.3,309.1 560.8,318.5 569.3,318.5C578.9,318.5 583.5,308.2 583.5,291.9C583.5,276.2 579.1,265.9 569.5,265.9C561.2,265.9 555.3,275.1 555.3,292.5Z" style="fill:white;fill-rule:nonzero;"/>
        </g>
        <g transform="matrix(1,0,0,1,-2.61228,0)">
            <path d="M601.4,324.1L601.4,318.8L608.7,312.2C626.4,296.7 634.3,288.5 634.4,278.9C634.4,272.4 631,266.4 620.7,266.4C614.4,266.4 609.2,269.3 606,271.8L603,265.7C607.8,262 614.6,259.2 622.6,259.2C637.5,259.2 643.8,268.6 643.8,277.7C643.8,289.5 634.5,299 620,311.9L614.5,316.6L614.5,316.8L645.6,316.8L645.6,324L601.4,324L601.4,324.1Z" style="fill:white;fill-rule:nonzero;"/>
        </g>
        <g transform="matrix(1,0,0,1,50.6316,0)">
            <path d="M601.4,324.1L601.4,318.8L608.7,312.2C626.4,296.7 634.3,288.5 634.4,278.9C634.4,272.4 631,266.4 620.7,266.4C614.4,266.4 609.2,269.3 606,271.8L603,265.7C607.8,262 614.6,259.2 622.6,259.2C637.5,259.2 643.8,268.6 643.8,277.7C643.8,289.5 634.5,299 620,311.9L614.5,316.6L614.5,316.8L645.6,316.8L645.6,324L601.4,324L601.4,324.1Z" style="fill:white;fill-rule:nonzero;"/>
        </g>
    </g>
    <defs>
        <linearGradient id="_Linear1" x1="0" y1="0" x2="1" y2="0" gradientUnits="userSpaceOnUse" gradientTransform="matrix(789.681,319.936,-319.936,789.681,13.7816,103.654)"><stop offset="0" style="stop-color:rgb(153,153,255);stop-opacity:1"/><stop offset="0.59" style="stop-color:rgb(80,80,182);stop-opacity:1"/><stop offset="0.84" style="stop-color:rgb(59,59,161);stop-opacity:1"/><stop offset="1" style="stop-color:rgb(51,51,153);stop-opacity:1"/></linearGradient>
    </defs>
</svg>
