<?xml version="1.0" encoding="utf-8"?>
<!-- Generator: Adobe Illustrator 25.1.0, SVG Export Plug-In . SVG Version: 6.00 Build 0)  -->
<svg version="1.1" id="Layer_1" xmlns:serif="http://www.serif.com/"
	 xmlns="http://www.w3.org/2000/svg" xmlns:xlink="http://www.w3.org/1999/xlink" x="0px" y="0px" viewBox="0 0 1920 1080"
	 style="enable-background:new 0 0 1920 1080;" xml:space="preserve">
<style type="text/css">
	.st0{fill-rule:evenodd;clip-rule:evenodd;fill:url(#SVGID_1_);}
	.st1{fill:#FFFFFF;}
</style>
<linearGradient id="SVGID_1_" gradientUnits="userSpaceOnUse" x1="0" y1="1080" x2="1" y2="1080" gradientTransform="matrix(1705.7111 691.0618 691.0618 -1705.7111 -746167 1842391.875)">
	<stop  offset="0" style="stop-color:#9999FF"/>
	<stop  offset="0.59" style="stop-color:#5050B6"/>
	<stop  offset="0.84" style="stop-color:#3B3BA1"/>
	<stop  offset="1" style="stop-color:#333399"/>
</linearGradient>
<rect x="150" class="st0" width="1620" height="1080"/>
<g>
	<g>
		<path class="st1" d="M318,641.3c-19.2,0-33.3,14.7-33.3,34.8c0,20.1,13.8,34.8,32.8,34.8c19.7,0,33.3-14.3,33.3-34.8
			S337.5,641.3,318,641.3z"/>
		<path class="st1" d="M589.6,518c0,36.9,0.4,69.8,2.8,103.9c-13-25.5-27.9-51.6-45.4-79.3L444.8,381.5h-52.5v324.4h49V566.4
			c0-42.6-0.6-75.2-2.2-106.9c12.5,24.6,28.5,52.1,48.8,84.7l101.1,161.8h49.5V381h-49V518z"/>
		<path class="st1" d="M749.8,558.6h122v-44.3h-122v-88.1h129V381H698.6v324.9h187.1v-45.1H749.8V558.6z"/>
		<path class="st1" d="M899.1,381v45.4h95.5v279.5h51.8V426.4h95.9V381H899.1z"/>
	</g>
	<g>
		<path class="st1" d="M1326.6,517.1c-6.7,3.5-20.3,6.7-37.6,6.7c-40.2,0-70.4-25.5-70.4-72.1c0-44.7,30.2-75,74.5-75
			c17.7,0,28.9,3.9,33.9,6.3l-4.5,15.1c-6.9-3.5-16.8-5.8-28.7-5.8c-33.5,0-55.7,21.4-55.7,58.8c0,35,20.1,57.5,54.9,57.5
			c11.2,0,22.7-2.4,30-5.8L1326.6,517.1z"/>
		<path class="st1" d="M1439.3,469.6c0,37.8-26.4,54.4-51,54.4c-27.6,0-49-20.3-49-52.7c0-34.3,22.5-54.4,50.8-54.4
			C1419.4,417.1,1439.3,438.3,1439.3,469.6z M1358.1,470.7c0,22.5,13,39.3,31.1,39.3c17.7,0,31.1-16.6,31.1-39.7
			c0-17.3-8.6-39.3-30.7-39.3C1367.6,431.1,1358.1,451.2,1358.1,470.7z"/>
		<path class="st1" d="M1462.8,446.9c0-10.6-0.2-19.2-0.9-27.6h16.4l1.1,16.8h0.4c5.2-9.7,16.8-19.2,33.9-19.2
			c14.3,0,36.3,8.4,36.3,43.6v61.1h-18.6v-59c0-16.4-6-30.2-23.8-30.2c-12.3,0-21.8,8.6-25.1,19c-0.9,2.4-1.3,5.4-1.3,8.6v61.6
			h-18.6V446.9z"/>
		<path class="st1" d="M1582.3,521.9v-88.1h-14.5v-14.3h14.5v-5c0-14.5,3.2-27.4,11.9-35.9c6.9-6.7,16.2-9.5,25.1-9.5
			c6.5,0,12.3,1.5,16,3l-2.6,14.5c-2.8-1.3-6.5-2.4-11.9-2.4c-16,0-19.9,14-19.9,29.6v5.4h24.8v14.3h-24.8v88.3H1582.3z"/>
	</g>
</g>
<g>
	<path class="st1" d="M1220.4,705.3V694l14.4-14c34.6-33,50.3-50.5,50.5-71c0-13.8-6.7-26.5-26.9-26.5c-12.3,0-22.5,6.3-28.8,11.5
		l-5.8-12.9c9.4-7.9,22.7-13.8,38.4-13.8c29.2,0,41.5,20,41.5,39.4c0,25-18.2,45.3-46.7,72.8l-10.9,10v0.4h60.9v15.2H1220.4z"/>
	<path class="st1" d="M1417.6,636c0,46.1-17.1,71.6-47.2,71.6c-26.5,0-44.5-24.8-44.9-69.7c0-45.5,19.6-70.5,47.2-70.5
		C1401.3,567.3,1417.6,592.8,1417.6,636z M1343.9,638.1c0,35.3,10.9,55.3,27.5,55.3c18.8,0,27.8-21.9,27.8-56.6
		c0-33.4-8.6-55.3-27.5-55.3C1355.6,581.5,1343.9,601.1,1343.9,638.1z"/>
	<path class="st1" d="M1434.5,705.3V694l14.4-14c34.6-33,50.3-50.5,50.5-71c0-13.8-6.7-26.5-26.9-26.5c-12.3,0-22.5,6.3-28.8,11.5
		l-5.8-12.9c9.4-7.9,22.7-13.8,38.4-13.8c29.2,0,41.5,20,41.5,39.4c0,25-18.2,45.3-46.7,72.8l-10.9,10v0.4h60.9v15.2H1434.5z"/>
	<path class="st1" d="M1545.9,684.2c5.2,3.3,17.3,8.6,30.1,8.6c23.6,0,30.9-15,30.7-26.3c-0.2-19-17.3-27.1-35.1-27.1h-10.2v-13.8
		h10.2c13.4,0,30.3-6.9,30.3-23c0-10.9-6.9-20.5-23.8-20.5c-10.9,0-21.3,4.8-27.1,9l-4.8-13.4c7.1-5.2,20.9-10.4,35.5-10.4
		c26.7,0,38.8,15.9,38.8,32.3c0,14-8.3,25.9-25,31.9v0.4c16.7,3.3,30.3,15.9,30.3,34.9c0,21.7-16.9,40.7-49.5,40.7
		c-15.2,0-28.6-4.8-35.3-9.2L1545.9,684.2z"/>
</g>
</svg>
