<?xml version="1.0" encoding="utf-8"?>
<!-- Generator: Adobe Illustrator 25.1.0, SVG Export Plug-In . SVG Version: 6.00 Build 0)  -->
<svg version="1.1" id="Layer_1" xmlns="http://www.w3.org/2000/svg" xmlns:xlink="http://www.w3.org/1999/xlink" x="0px" y="0px"
	 viewBox="0 0 744 293" style="enable-background:new 0 0 744 293;" xml:space="preserve">
<style type="text/css">
	.st0{fill:url(#SVGID_1_);}
	.st1{fill:#FFFFFF;}
</style>
<linearGradient id="SVGID_1_" gradientUnits="userSpaceOnUse" x1="44.8587" y1="280.0399" x2="760.0419" y2="-9.7135" gradientTransform="matrix(1 0 0 -1 0 294)">
	<stop  offset="0" style="stop-color:#9999FF"/>
	<stop  offset="0.2824" style="stop-color:#7373D9"/>
	<stop  offset="0.5862" style="stop-color:#5050B6"/>
	<stop  offset="0.8364" style="stop-color:#3B3BA1"/>
	<stop  offset="1" style="stop-color:#333399"/>
</linearGradient>
<rect class="st0" width="744" height="293"/>
<g>
	<g>
		<path class="st1" d="M73.6,194.7c-8.9,0-15.4,6.8-15.4,16.1s6.4,16.1,15.2,16.1c9.1,0,15.4-6.6,15.4-16.1S82.6,194.7,73.6,194.7z"
			/>
		<path class="st1" d="M199.3,137.5c0,17.1,0.2,32.3,1.3,48.1c-6-11.8-12.9-23.9-21-36.7l-47.3-74.6H108v150.2h22.7v-64.6
			c0-19.7-0.3-34.8-1-49.5c5.8,11.4,13.2,24.1,22.6,39.2l46.8,74.9H222V74.2h-22.7V137.5z"/>
		<polygon class="st1" points="273.5,156.4 330,156.4 330,135.9 273.5,135.9 273.5,95 333.2,95 333.2,74.2 249.8,74.2 249.8,224.5 
			336.4,224.5 336.4,203.7 273.5,203.7 		"/>
		<polygon class="st1" points="342.6,74.2 342.6,95.2 386.8,95.2 386.8,224.5 410.8,224.5 410.8,95.2 455.2,95.2 455.2,74.2 		"/>
	</g>
	<g>
		<path class="st1" d="M540.5,137.2c-3.1,1.6-9.4,3.1-17.4,3.1c-18.6,0-32.6-11.8-32.6-33.4c0-20.7,14-34.7,34.5-34.7
			c8.2,0,13.4,1.8,15.7,2.9l-2.1,7c-3.2-1.6-7.8-2.7-13.3-2.7c-15.5,0-25.8,9.9-25.8,27.2c0,16.2,9.3,26.6,25.4,26.6
			c5.2,0,10.5-1.1,13.9-2.7L540.5,137.2z"/>
		<path class="st1" d="M592.7,115.2c0,17.5-12.2,25.2-23.6,25.2c-12.8,0-22.7-9.4-22.7-24.4c0-15.9,10.4-25.2,23.5-25.2
			C583.5,90.8,592.7,100.7,592.7,115.2z M555.1,115.7c0,10.4,6,18.2,14.4,18.2c8.2,0,14.4-7.7,14.4-18.4c0-8-4-18.2-14.2-18.2
			C559.5,97.3,555.1,106.7,555.1,115.7z"/>
		<path class="st1" d="M603.6,104.7c0-4.9-0.1-8.9-0.4-12.8h7.6l0.5,7.8h0.2c2.4-4.5,7.8-8.9,15.7-8.9c6.6,0,16.8,3.9,16.8,20.2
			v28.3h-8.6V112c0-7.6-2.8-14-11-14c-5.7,0-10.1,4-11.6,8.8c-0.4,1.1-0.6,2.5-0.6,4v28.5h-8.6L603.6,104.7L603.6,104.7z"/>
		<path class="st1" d="M658.9,139.3V98.5h-6.7v-6.6h6.7v-2.3c0-6.7,1.5-12.7,5.5-16.6c3.2-3.1,7.5-4.4,11.6-4.4c3,0,5.7,0.7,7.4,1.4
			l-1.2,6.7c-1.3-0.6-3-1.1-5.5-1.1c-7.4,0-9.2,6.5-9.2,13.7v2.5H679v6.6h-11.5v40.9L658.9,139.3L658.9,139.3z"/>
	</g>
</g>
<g>
	<path class="st1" d="M492.2,224.3V219l6.8-6.6c16.3-15.5,23.6-23.7,23.7-33.3c0-6.5-3.1-12.4-12.6-12.4c-5.8,0-10.6,2.9-13.5,5.4
		l-2.7-6.1c4.4-3.7,10.7-6.5,18-6.5c13.7,0,19.5,9.4,19.5,18.5c0,11.8-8.5,21.3-21.9,34.2l-5.1,4.7v0.2h28.6v7.2H492.2z"/>
	<path class="st1" d="M584.8,191.7c0,21.7-8,33.6-22.1,33.6c-12.4,0-20.9-11.7-21.1-32.7c0-21.4,9.2-33.1,22.1-33.1
		C577.1,159.5,584.8,171.5,584.8,191.7z M550.2,192.7c0,16.6,5.1,26,12.9,26c8.8,0,13-10.3,13-26.6c0-15.7-4-26-12.9-26
		C555.7,166.2,550.2,175.4,550.2,192.7z"/>
	<path class="st1" d="M592.7,224.3V219l6.8-6.6c16.3-15.5,23.6-23.7,23.7-33.3c0-6.5-3.1-12.4-12.6-12.4c-5.8,0-10.6,2.9-13.5,5.4
		l-2.7-6.1c4.4-3.7,10.7-6.5,18-6.5c13.7,0,19.5,9.4,19.5,18.5c0,11.8-8.5,21.3-21.9,34.2l-5.1,4.7v0.2h28.6v7.2H592.7z"/>
	<path class="st1" d="M645,214.4c2.4,1.6,8.1,4,14.1,4c11.1,0,14.5-7.1,14.4-12.3c-0.1-8.9-8.1-12.7-16.5-12.7h-4.8v-6.5h4.8
		c6.3,0,14.2-3.2,14.2-10.8c0-5.1-3.2-9.6-11.2-9.6c-5.1,0-10,2.3-12.7,4.2l-2.3-6.3c3.3-2.4,9.8-4.9,16.7-4.9
		c12.5,0,18.2,7.4,18.2,15.2c0,6.6-3.9,12.1-11.8,15v0.2c7.8,1.6,14.2,7.4,14.2,16.4c0,10.2-7.9,19.1-23.2,19.1
		c-7.2,0-13.4-2.3-16.6-4.3L645,214.4z"/>
</g>
</svg>
